:SAMPLES-PER-SECOND 30
:FULLY-SPECIFIED
:DEGREES
67
root  90.0274 39.2843 0.186017 -123.72 -86.0357 123.708
RightUpLeg  -0.398916 -6.54107 -1.8802
RightLeg  6.15316 3.57298 -0.122963
RightFoot  -6.68583 0.0918582 -3.36782
RightToes  -1.16417e-010 0 -3.6325e-017
Spine  4.15343 0.622018 -1.52082
Spine1  -0.294182 0.223514 2.46316
HEad  -15.0798 -7.27072 -4.22255
LeftShoulder1  -0.757246 5.52294 -31.3371
LeftArm  4.72337 11.3976 -43.692
LeftForeArm  25.4558 -17.0523 -6.10236
LeftHand  -0.0662378 7.84719 -1.03942
RightShoulder  -1.15566 -6.78769 28.679
RightArm  18.0492 -4.06354 47.3649
RightForeArm  18.8019 11.5837 7.17898
RightHand  -0.0559789 2.79566 -1.01321
LeftUpLeg  0.687462 4.50731 -1.32974
LeftLeg  2.59933 3.62415 0.293122
LeftFoot  -3.21089 -0.0640716 1.17556
LeftToes  3.13772e-010 -3.14513e-011 3.96022e-013
68
root  89.9749 39.2691 0.120979 -122.024 -86.0511 121.857
RightUpLeg  -0.256176 -6.61134 -1.8998
RightLeg  6.43359 3.54898 -0.0694365
RightFoot  -6.97715 0.0798261 -3.33271
RightToes  -1.16417e-010 0 -3.6325e-017
Spine  4.22777 0.643872 -1.49715
Spine1  0.130451 0.193604 2.73245
HEad  -15.4867 -5.96043 -4.63319
LeftShoulder1  -0.842797 5.73228 -31.6603
LeftArm  3.91835 10.8033 -43.7942
LeftForeArm  25.932 -16.7051 -6.20171
LeftHand  -0.0457461 6.94334 -0.689824
RightShoulder  -1.18503 -6.86757 28.7227
RightArm  17.518 -4.12127 47.1709
RightForeArm  19.7651 11.1166 7.2039
RightHand  0.00485955 3.17597 -0.166158
LeftUpLeg  0.818262 4.65896 -1.18571
LeftLeg  2.88681 3.30892 0.170371
LeftFoot  -3.47505 -0.0625189 1.21475
LeftToes  3.13772e-010 -3.14513e-011 3.96022e-013
69
root  89.8959 39.25 0.0318903 -122.8 -86.0457 122.592
RightUpLeg  -0.0989448 -6.62176 -1.77185
RightLeg  6.49917 3.53982 -0.0132454
RightFoot  -7.16225 0.0842936 -3.63401
RightToes  -1.16417e-010 0 -3.6325e-017
Spine  4.50904 0.548132 -0.984363
Spine1  0.16263 0.154621 2.45244
HEad  -16.7015 -5.04649 -4.87253
LeftShoulder1  -0.788266 5.58015 -31.7986
LeftArm  5.87691 11.4353 -43.6364
LeftForeArm  23.6367 -18.2282 -5.58165
LeftHand  -0.0349174 8.57646 0.435309
RightShoulder  -1.19283 -6.88138 28.8103
RightArm  17.9185 -4.45312 47.0358
RightForeArm  20.1031 11.1892 7.24846
RightHand  0.0733031 2.92293 0.75125
LeftUpLeg  0.761175 4.83586 -0.940732
LeftLeg  3.4045 3.12007 0.0924672
LeftFoot  -3.86975 -0.0501197 1.12323
LeftToes  3.13772e-010 -3.14513e-011 3.96022e-013
70
root  89.8134 39.2119 -0.0747433 -127.091 -85.9699 127.057
RightUpLeg  -0.376909 -6.40259 -1.38382
RightLeg  6.93086 3.54843 -0.121843
RightFoot  -7.51134 0.0753419 -3.76911
RightToes  -1.16417e-010 0 -3.6325e-017
Spine  4.94591 0.758869 -0.666562
Spine1  -0.257364 0.359496 2.68565
HEad  -18.296 -4.1618 -5.13717
LeftShoulder1  -0.869635 5.78602 -31.9404
LeftArm  6.65724 11.4712 -43.6744
LeftForeArm  23.0497 -18.6201 -5.44253
LeftHand  -0.0277202 9.21462 0.658176
RightShoulder  -1.23818 -7.00395 28.8778
RightArm  18.5032 -5.18734 46.5803
RightForeArm  19.2405 11.5508 7.24558
RightHand  -0.0123632 1.54937 -0.318772
LeftUpLeg  0.218817 4.81345 -0.704783
LeftLeg  4.48707 3.46126 0.250718
LeftFoot  -4.53116 -0.0230847 0.84856
LeftToes  3.13772e-010 -3.14513e-011 3.96022e-013
71
root  89.7103 39.1707 -0.169684 -135.831 -85.6952 135.774
RightUpLeg  -0.376785 -6.37502 -1.04772
RightLeg  7.29208 4.21661 0.0646407
RightFoot  -7.79035 0.0752644 -4.11937
RightToes  -1.16417e-010 0 -3.6325e-017
Spine  5.07311 1.15681 0.171871
Spine1  -0.114328 0.831863 2.52441
HEad  -19.6502 -4.17839 -5.49093
LeftShoulder1  -0.830075 5.6882 -31.8356
LeftArm  6.63319 11.4811 -44.0095
LeftForeArm  23.1836 -18.7231 -5.37782
LeftHand  -0.032665 8.5827 0.481075
RightShoulder  -1.21399 -6.92953 28.9342
RightArm  18.0308 -5.42006 46.3382
RightForeArm  19.827 10.9216 7.37306
RightHand  0.00195263 2.73415 -0.168168
LeftUpLeg  -0.199794 5.34242 -0.1383
LeftLeg  5.97502 3.68598 0.153121
LeftFoot  -5.44731 0.00169367 0.59955
LeftToes  3.13772e-010 -3.14513e-011 3.96022e-013
72
root  89.5461 39.0753 -0.250918 -143.881 -85.1415 143.668
RightUpLeg  -0.604996 -6.40748 -0.849399
RightLeg  8.58787 5.13336 0.136941
RightFoot  -8.69201 0.0388208 -4.22588
RightToes  -1.16417e-010 0 -3.6325e-017
Spine  4.90789 1.4105 1.33606
Spine1  0.474143 1.26351 1.98723
HEad  -20.5954 -3.41648 -5.79252
LeftShoulder1  -0.791194 5.59428 -31.6875
LeftArm  8.03766 11.7586 -43.8901
LeftForeArm  22.2463 -19.4924 -5.07511
LeftHand  -0.0472101 8.67873 0.0409177
RightShoulder  -1.17555 -6.83524 28.7781
RightArm  18.0817 -5.58003 46.5198
RightForeArm  21.2897 10.5858 7.48276
RightHand  0.0717277 2.46662 0.856393
LeftUpLeg  -0.720796 5.61382 0.108493
LeftLeg  8.14468 4.2477 0.43073
LeftFoot  -6.63471 0.0322397 0.199963
LeftToes  3.13772e-010 -3.14513e-011 3.96022e-013
73
root  89.5202 38.9231 -0.334732 -141.027 -86.2728 140.983
RightUpLeg  -1.27378 -6.74893 -0.365301
RightLeg  10.0389 4.47061 0.633388
RightFoot  -9.73694 -0.00169129 -4.56937
RightToes  -1.16417e-010 0 -3.6325e-017
Spine  5.59366 1.04332 2.4777
Spine1  -0.197378 0.969679 2.13315
HEad  -21.3396 -3.50723 -6.06474
LeftShoulder1  -0.775751 5.55116 -31.7299
LeftArm  8.34359 11.7593 -43.827
LeftForeArm  22.1197 -19.957 -4.85337
LeftHand  -0.0671971 9.18562 -0.589187
RightShoulder  -1.20252 -6.89985 28.906
RightArm  17.8136 -5.60316 46.4014
RightForeArm  21.0516 10.2164 7.56729
RightHand  -0.0309205 2.16247 -0.65377
LeftUpLeg  -3.18033 5.04464 0.467139
LeftLeg  12.4582 3.99249 1.27612
LeftFoot  -7.92754 0.0588492 -0.450505
LeftToes  3.13772e-010 -3.14513e-011 3.96022e-013
74
root  89.4528 38.7903 -0.422539 -145.922 -86.4987 145.521
RightUpLeg  -1.218 -6.85556 0.0703502
RightLeg  11.0489 4.40832 0.806816
RightFoot  -10.6612 -0.0430655 -4.8854
RightToes  -1.16417e-010 0 -3.6325e-017
Spine  6.69414 1.04782 3.80077
Spine1  -0.814515 1.18851 1.67212
HEad  -21.5576 -3.57834 -6.11316
LeftShoulder1  -0.765868 5.52862 -31.6646
LeftArm  8.92543 12.3184 -43.6781
LeftForeArm  21.5365 -21.0054 -4.40867
LeftHand  -0.0588404 7.28339 -1.00689
RightShoulder  -1.19304 -6.85945 29.0479
RightArm  17.1849 -5.30398 46.5079
RightForeArm  22.0758 9.51047 7.63787
RightHand  0.0531637 2.22173 0.624673
LeftUpLeg  -5.09867 4.36318 1.03879
LeftLeg  17.3153 4.35438 1.85072
LeftFoot  -8.75454 0.0973495 -1.93661
LeftToes  3.13772e-010 -3.14513e-011 3.96022e-013
75
root  89.3667 38.6635 -0.494288 -143.309 -87.0562 142.945
RightUpLeg  -1.6475 -7.32084 0.175472
RightLeg  12.3837 4.24998 1.19253
RightFoot  -11.6562 -0.0925089 -5.11725
RightToes  -1.16417e-010 0 -3.6325e-017
Spine  6.33328 1.06929 4.88257
Spine1  -0.0186058 1.35232 1.41916
HEad  -21.5775 -3.52065 -5.89474
LeftShoulder1  -0.799425 5.61711 -31.6666
LeftArm  10.165 12.238 -43.834
LeftForeArm  20.6321 -22.1789 -4.10343
LeftHand  -0.0556425 7.97013 -0.541758
RightShoulder  -1.19871 -6.8725 29.0774
RightArm  17.1262 -4.85573 46.4998
RightForeArm  21.5533 9.63119 7.5728
RightHand  0.120841 2.8372 1.53375
LeftUpLeg  -7.72348 2.89129 1.38432
LeftLeg  22.3906 4.2797 2.25944
LeftFoot  -8.03139 0.133685 -2.92905
LeftToes  3.13772e-010 -3.14513e-011 3.96022e-013
76
root  89.2436 38.5301 -0.553984 -126.927 -87.9267 126.35
RightUpLeg  -1.65294 -7.60838 0.452981
RightLeg  13.5444 3.48424 1.26916
RightFoot  -12.6716 -0.144972 -5.10481
RightToes  -1.16417e-010 0 -3.6325e-017
Spine  6.67137 0.851411 6.09588
Spine1  -0.216303 1.3217 1.0737
HEad  -20.6848 -4.22789 -5.95054
LeftShoulder1  -0.809406 5.64709 -31.6028
LeftArm  10.8227 12.8934 -43.6786
LeftForeArm  19.9362 -23.4165 -3.99962
LeftHand  -0.0368633 8.72706 0.384279
RightShoulder  -1.23942 -6.97234 29.2356
RightArm  16.9462 -4.16783 46.5692
RightForeArm  20.3119 8.98889 7.78542
RightHand  0.032179 3.92317 0.108832
LeftUpLeg  -10.7312 1.3731 1.8249
LeftLeg  28.3601 4.13877 2.75305
LeftFoot  -6.88464 0.243398 -5.14817
LeftToes  3.13772e-010 -3.14513e-011 3.96022e-013
77
root  89.0832 38.4583 -0.604754 -89.2173 -88.6396 88.0094
RightUpLeg  -0.627945 -8.23391 0.305369
RightLeg  13.7392 2.72124 1.50975
RightFoot  -13.3848 -0.181789 -5.13325
RightToes  -1.16417e-010 0 -3.6325e-017
Spine  7.09298 0.431422 7.27053
Spine1  0.0773992 1.15546 0.32213
HEad  -20.3434 -4.80435 -5.82533
LeftShoulder1  -0.817541 5.67624 -31.4664
LeftArm  10.8664 13.4316 -43.5309
LeftForeArm  19.7401 -24.2851 -4.15071
LeftHand  -0.0213729 8.15675 0.750507
RightShoulder  -1.22935 -6.95987 29.0695
RightArm  16.8958 -3.57091 46.995
RightForeArm  20.0682 9.37715 7.68221
RightHand  -0.0188627 2.94044 -0.476638
LeftUpLeg  -13.2572 -0.0731657 1.93025
LeftLeg  33.7351 3.92462 3.16171
LeftFoot  -4.5728 0.342247 -5.40305
LeftToes  3.13772e-010 -3.14513e-011 3.96022e-013
78
root  88.957 38.3705 -0.728947 -104.367 -88.5379 103.069
RightUpLeg  -0.867993 -8.17325 0.532594
RightLeg  14.7982 2.9461 1.42526
RightFoot  -14.1785 -0.221645 -5.06666
RightToes  -1.16417e-010 0 -3.6325e-017
Spine  7.84204 1.04644 7.79754
Spine1  -0.667831 1.94759 -0.163217
HEad  -20.0099 -6.28058 -5.41466
LeftShoulder1  -0.775537 5.58067 -31.1823
LeftArm  10.8622 14.3411 -43.3932
LeftForeArm  20.0216 -24.961 -4.28632
LeftHand  -0.0286855 6.57821 0.347653
RightShoulder  -1.26494 -7.00487 29.6363
RightArm  17.3673 -2.53168 46.6428
RightForeArm  18.571 9.58326 7.76625
RightHand  -0.063133 3.09944 -1.09922
LeftUpLeg  -16.1296 0.283217 1.87777
LeftLeg  38.1534 2.97898 2.8547
LeftFoot  -3.3139 0.292412 -3.85238
LeftToes  3.13772e-010 -3.14513e-011 3.96022e-013
79
root  88.7164 38.3196 -0.792964 -101.752 -88.3055 100.268
RightUpLeg  -0.405845 -8.44588 0.334536
RightLeg  15.1926 3.29206 1.50334
RightFoot  -14.8625 -0.259211 -5.17168
RightToes  -1.16417e-010 0 -3.6325e-017
Spine  7.74576 1.29148 8.46255
Spine1  -0.529339 2.36663 -0.943556
HEad  -18.8381 -5.89934 -5.5869
LeftShoulder1  -0.775609 5.57121 -31.3541
LeftArm  10.5533 15.1739 -42.9656
LeftForeArm  18.9742 -24.9255 -4.33466
LeftHand  -0.0148431 8.34425 1.1513
RightShoulder  -1.24816 -6.96292 29.5861
RightArm  17.5512 -1.30294 47.0155
RightForeArm  18.2361 9.96618 7.70235
RightHand  -0.0278874 3.58311 -0.611163
LeftUpLeg  -18.0565 -0.0830024 1.43834
LeftLeg  39.9929 1.07968 1.34988
LeftFoot  -3.83209 0.267379 -3.73635
LeftToes  3.13772e-010 -3.14513e-011 3.96022e-013
80
root  88.4246 38.3455 -0.873441 -127.719 -87.4234 126.136
RightUpLeg  -0.00778209 -8.56297 -0.205745
RightLeg  15.5335 4.79494 1.62987
RightFoot  -15.2167 -0.268269 -4.88437
RightToes  -1.16417e-010 0 -3.6325e-017
Spine  7.48676 2.02875 8.53706
Spine1  -0.00298443 3.24172 -1.8045
HEad  -18.2637 -5.86802 -6.0359
LeftShoulder1  -0.831809 5.72 -31.3706
LeftArm  10.0754 15.7359 -42.9446
LeftForeArm  19.5908 -24.1347 -4.13007
LeftHand  -0.0558106 7.83561 -0.47436
RightShoulder  -1.25294 -6.97888 29.5595
RightArm  18.1088 0.504656 47.4132
RightForeArm  17.1685 10.4475 7.70498
RightHand  -0.0156343 3.99765 -0.462074
LeftUpLeg  -19.076 0.676545 0.610355
LeftLeg  39.2786 0.0598813 0.424292
LeftFoot  -4.37201 0.309071 -4.63672
LeftToes  3.13772e-010 -3.14513e-011 3.96022e-013
81
root  88.1671 38.3701 -0.93339 -110.829 -87.2825 109.429
RightUpLeg  0.611383 -8.9632 -0.792911
RightLeg  14.9491 4.73352 1.7588
RightFoot  -15.5498 -0.286707 -4.9415
RightToes  -1.16417e-010 0 -3.6325e-017
Spine  7.16325 1.90934 8.46827
Spine1  0.19435 3.13228 -2.54776
HEad  -18.0206 -5.43265 -7.03279
LeftShoulder1  -0.857515 5.79688 -31.2281
LeftArm  10.0066 16.5577 -42.6456
LeftForeArm  19.9967 -23.5029 -4.01148
LeftHand  -0.099174 8.18435 -2.1717
RightShoulder  -1.24486 -6.97616 29.3503
RightArm  18.3897 2.30041 48.1689
RightForeArm  16.1723 11.2681 7.46953
RightHand  0.0331206 4.46359 0.10018
LeftUpLeg  -20.4475 0.312162 -0.365878
LeftLeg  37.0308 -0.605768 -0.138667
LeftFoot  -4.68995 0.296538 -4.61908
LeftToes  3.13772e-010 -3.14513e-011 3.96022e-013
